<?xml version="1.0" standalone="no"?>
<!DOCTYPE svg PUBLIC "-//W3C//DTD SVG 20010904//EN"
 "http://www.w3.org/TR/2001/REC-SVG-20010904/DTD/svg10.dtd">
<svg version="1.0" xmlns="http://www.w3.org/2000/svg"
 width="844.000000pt" height="844.000000pt" viewBox="0 0 844.000000 844.000000"
 preserveAspectRatio="xMidYMid meet">
<metadata>
Created by potrace 1.16, written by Peter Selinger 2001-2019
</metadata>
<g transform="translate(0.000000,844.000000) scale(0.100000,-0.100000)"
fill="#000000" stroke="none">
<path d="M3930 8429 c-383 -27 -779 -110 -1129 -235 l-131 -48 0 -1540 0
-1541 1540 1540 c847 847 1540 1543 1540 1546 0 9 -328 117 -470 153 -433 112
-909 156 -1350 125z"/>
<path d="M4730 6025 l-1755 -1755 638 -637 637 -638 1757 1757 1757 1757 -29
43 c-295 453 -765 917 -1225 1211 l-26 16 -1754 -1754z"/>
<path d="M1748 7637 c-198 -144 -329 -257 -513 -442 -340 -340 -594 -696 -805
-1125 -218 -445 -346 -888 -406 -1405 -25 -209 -25 -681 0 -890 99 -847 408
-1583 942 -2239 121 -149 401 -431 547 -551 114 -94 357 -275 370 -275 4 0 7
1579 7 3510 0 1931 -3 3510 -7 3510 -5 0 -65 -42 -135 -93z"/>
<path d="M6467 4112 l-1667 -1667 873 -873 873 -873 115 81 c674 483 1189
1141 1490 1908 334 851 378 1819 124 2698 -44 151 -120 372 -134 386 -3 4
-757 -743 -1674 -1660z"/>
<path d="M2670 1884 l0 -1590 131 -48 c513 -184 1091 -269 1632 -238 350 20
642 68 948 156 155 44 439 145 439 155 0 4 -709 715 -1575 1581 l-1575 1575 0
-1591z"/>
</g>
</svg>
